<?xml version="1.0" standalone="no"?>
<!DOCTYPE svg PUBLIC "-//W3C//DTD SVG 20010904//EN"
 "http://www.w3.org/TR/2001/REC-SVG-20010904/DTD/svg10.dtd">
<svg version="1.0" xmlns="http://www.w3.org/2000/svg"
 width="194.000000pt" height="194.000000pt" viewBox="0 0 194.000000 194.000000"
 preserveAspectRatio="xMidYMid meet">
<metadata>
Created by potrace 1.14, written by Peter Selinger 2001-2017
</metadata>
<g transform="translate(0.000000,194.000000) scale(0.100000,-0.100000)"
fill="#000000" stroke="none">
<path d="M760 1706 c-97 -26 -232 -82 -261 -109 -16 -15 -19 -32 -19 -113 0
-86 -2 -96 -19 -101 -30 -8 -126 -135 -165 -216 -74 -158 -93 -312 -56 -467
82 -341 366 -571 710 -573 206 -1 384 75 526 226 83 88 127 159 165 269 26 76
29 95 29 223 0 155 -12 220 -59 320 -37 78 -114 182 -151 203 -30 17 -30 17
-30 114 0 70 -4 100 -14 111 -24 24 -184 88 -284 113 -124 32 -252 31 -372 0z
m188 -660 l2 -629 -56 6 c-115 12 -260 110 -317 214 -53 99 -57 134 -57 544
l0 377 83 40 c97 47 230 81 307 78 l35 -1 3 -629z m140 370 c6 -3 25 -60 43
-126 18 -66 36 -120 40 -120 13 0 18 14 53 132 l33 113 36 3 c30 3 37 0 36
-15 0 -10 -26 -92 -57 -183 l-57 -165 -37 -3 c-35 -3 -37 -2 -56 50 -65 178
-103 300 -99 312 5 13 45 14 65 2z m-617 -109 c-8 -8 -11 -7 -11 4 0 20 13 34
18 19 3 -7 -1 -17 -7 -23z m979 13 c9 -16 8 -20 -5 -20 -8 0 -15 9 -15 20 0
11 2 20 5 20 2 0 9 -9 15 -20z m-296 -471 c37 -29 20 -46 -27 -28 -29 10 -39
10 -51 0 -29 -24 -19 -41 23 -41 75 0 115 -86 65 -141 -40 -44 -120 -27 -144
31 -7 18 -11 53 -8 87 4 48 10 61 37 85 37 33 69 36 105 7z m160 5 c9 -24 7
-207 -3 -223 -5 -8 -16 -11 -25 -8 -11 5 -16 24 -18 84 -3 72 -4 78 -27 83
-34 8 -38 28 -7 36 13 3 32 14 42 25 21 23 30 24 38 3z m-814 -272 c0 -4 -5
-13 -11 -19 -8 -8 -8 -17 0 -32 10 -17 16 -19 31 -11 23 12 30 13 30 1 0 -16
-79 -73 -91 -65 -9 5 -7 11 5 20 10 7 16 21 14 31 -3 14 -12 17 -41 15 -20 -2
-37 -1 -37 2 0 6 83 66 92 66 4 0 8 -4 8 -8z m950 -67 c13 -25 21 -48 17 -51
-9 -9 -110 30 -115 45 -4 11 0 12 14 6 34 -14 64 -18 64 -8 0 6 -9 20 -20 33
-11 12 -17 27 -14 32 9 14 28 -6 54 -57z m-840 -116 c-11 -27 -20 -52 -20 -54
0 -3 -4 -5 -10 -5 -5 0 -10 6 -10 14 0 21 -30 48 -46 42 -7 -3 -16 -1 -19 4
-3 5 18 23 47 39 70 40 85 29 58 -40z m730 17 c0 -2 3 -11 6 -20 4 -10 1 -16
-9 -16 -8 0 -17 6 -20 13 -2 6 -8 9 -12 5 -13 -13 16 -39 36 -33 21 7 25 -5 7
-23 -17 -17 -38 -15 -60 5 -33 30 -16 73 29 73 13 0 23 -2 23 -4z m-640 -21
c0 -17 -46 -95 -57 -95 -17 0 -17 0 13 54 22 38 44 60 44 41z m70 -50 c0 -13
3 -31 7 -41 5 -14 10 -12 32 14 17 21 30 29 39 24 10 -7 9 -19 -4 -60 -16 -50
-37 -71 -33 -34 3 32 -1 35 -20 13 -22 -26 -45 -19 -36 10 8 23 -2 24 -27 2
-15 -14 -18 -14 -18 -1 0 20 20 80 33 95 13 18 27 6 27 -22z m420 20 c0 -5
-10 -10 -21 -10 -12 0 -26 -8 -32 -17 -15 -23 6 -68 32 -68 25 0 36 17 22 34
-9 10 -8 15 5 20 15 6 43 -17 44 -37 0 -14 -61 -45 -80 -40 -23 6 -45 31 -54
59 -9 30 29 76 60 72 14 -2 24 -7 24 -13z m-126 -42 c3 -10 6 -36 8 -57 3 -48
-14 -58 -38 -22 -21 33 -44 34 -44 1 0 -14 -4 -25 -10 -25 -5 0 -10 8 -10 18
0 9 -3 34 -6 55 -8 46 14 51 45 10 16 -22 23 -25 30 -14 5 7 6 22 4 32 -7 24
14 25 21 2z m-152 -55 c-2 -27 -8 -48 -13 -48 -10 0 -12 93 -2 104 13 13 20
-10 15 -56z"/>
<path d="M663 1429 c-47 -14 -73 -52 -73 -109 0 -63 31 -94 108 -111 109 -24
142 -59 87 -95 -33 -21 -88 -11 -112 20 -23 31 -54 40 -77 23 -17 -13 -17 -16
-2 -44 22 -43 59 -70 106 -78 65 -11 120 3 157 40 28 28 33 40 33 82 0 65 -25
89 -126 117 -44 12 -82 29 -88 39 -17 26 4 51 47 55 29 3 42 -3 68 -27 35 -34
34 -33 67 -25 19 6 22 11 17 33 -18 73 -112 109 -212 80z"/>
<path d="M626 851 c-10 -11 -28 -21 -40 -23 -29 -4 -27 -31 4 -38 24 -6 25
-10 28 -82 2 -53 7 -80 18 -89 9 -7 18 -9 24 -3 7 7 14 168 11 242 -1 18 -26
15 -45 -7z"/>
<path d="M742 847 c-15 -16 -22 -36 -22 -65 0 -55 26 -82 80 -82 28 0 40 -4
40 -15 0 -25 -32 -35 -62 -19 -45 24 -67 -6 -30 -39 28 -26 88 -22 117 7 47
47 47 173 0 213 -36 31 -94 31 -123 0z m86 -29 c32 -32 1 -89 -37 -68 -26 13
-28 55 -3 69 22 13 26 13 40 -1z"/>
<path d="M1070 726 c-28 -35 11 -93 48 -70 35 22 22 84 -18 84 -10 0 -23 -7
-30 -14z"/>
<path d="M567 423 c-12 -11 -8 -23 8 -23 8 0 15 7 15 15 0 16 -12 20 -23 8z"/>
</g>
</svg>
